<svg xmlns="http://www.w3.org/2000/svg" viewBox="0 0 512 512">
  <defs>
    <linearGradient id="bg" x1="0" y1="0" x2="0.6" y2="1">
      <stop offset="0" stop-color="#2a2f5c"/>
      <stop offset="0.55" stop-color="#151833"/>
      <stop offset="1" stop-color="#0a0c1a"/>
    </linearGradient>
    <radialGradient id="glow" cx="0.5" cy="0.5" r="0.5">
      <stop offset="0" stop-color="#ffb860" stop-opacity="0.85"/>
      <stop offset="0.5" stop-color="#ff9a40" stop-opacity="0.28"/>
      <stop offset="1" stop-color="#ff9a40" stop-opacity="0"/>
    </radialGradient>
    <linearGradient id="gold" x1="0" y1="0" x2="0" y2="1">
      <stop offset="0" stop-color="#fff0bf"/>
      <stop offset="0.5" stop-color="#e8c479"/>
      <stop offset="1" stop-color="#b08840"/>
    </linearGradient>
    <linearGradient id="sea" x1="0" y1="0" x2="0" y2="1">
      <stop offset="0" stop-color="#2f78b8"/>
      <stop offset="1" stop-color="#173f78"/>
    </linearGradient>
    <clipPath id="rr"><rect x="16" y="16" width="480" height="480" rx="104"/></clipPath>
  </defs>
  <rect x="16" y="16" width="480" height="480" rx="104" fill="url(#bg)"/>
  <g clip-path="url(#rr)">
    <!-- 遠山 -->
    <path d="M16 330 L120 236 L196 300 L286 200 L400 308 L496 252 L496 496 L16 496Z" fill="#232a55"/>
    <path d="M16 372 L96 314 L176 360 L268 292 L372 366 L496 318 L496 496 L16 496Z" fill="#1a2046"/>
    <!-- 海 -->
    <path d="M16 404 Q96 388 176 404 T336 404 T496 404 L496 496 L16 496Z" fill="url(#sea)"/>
    <path d="M60 432 h64 M210 448 h86 M360 430 h70" stroke="#9ed4ff" stroke-opacity="0.45" stroke-width="6" stroke-linecap="round"/>
    <!-- 星 -->
    <g fill="#fff3cf">
      <rect x="118" y="96" width="8" height="8" opacity="0.9"/>
      <rect x="392" y="78" width="6" height="6" opacity="0.7"/>
      <rect x="338" y="130" width="5" height="5" opacity="0.6"/>
      <rect x="76" y="168" width="5" height="5" opacity="0.55"/>
    </g>
    <!-- 暖光 -->
    <circle cx="256" cy="262" r="190" fill="url(#glow)"/>
    <!-- 細胞聚落：方塊＋散落細胞 -->
    <g>
      <rect x="196" y="218" width="58" height="58" rx="6" fill="#00000055" transform="translate(10 14)"/>
      <rect x="258" y="218" width="58" height="58" rx="6" fill="#00000055" transform="translate(10 14)"/>
      <rect x="196" y="280" width="58" height="58" rx="6" fill="#00000055" transform="translate(10 14)"/>
      <rect x="258" y="280" width="58" height="58" rx="6" fill="#00000055" transform="translate(10 14)"/>
      <rect x="196" y="218" width="58" height="58" rx="6" fill="url(#gold)"/>
      <rect x="258" y="218" width="58" height="58" rx="6" fill="url(#gold)"/>
      <rect x="196" y="280" width="58" height="58" rx="6" fill="url(#gold)"/>
      <rect x="258" y="280" width="58" height="58" rx="6" fill="url(#gold)"/>
      <g fill="#ffe9a8" opacity="0.95">
        <rect x="140" y="304" width="34" height="34" rx="5"/>
        <rect x="334" y="196" width="34" height="34" rx="5"/>
        <rect x="334" y="236" width="34" height="34" rx="5" opacity="0.7"/>
        <rect x="160" y="168" width="26" height="26" rx="4" opacity="0.8"/>
      </g>
    </g>
  </g>
  <rect x="16" y="16" width="480" height="480" rx="104" fill="none" stroke="#d9b46a" stroke-width="6" stroke-opacity="0.85"/>
  <rect x="30" y="30" width="452" height="452" rx="92" fill="none" stroke="#d9b46a" stroke-width="1.5" stroke-opacity="0.4"/>
</svg>
